<svg width="6" height="7" viewBox="0 0 6 7" fill="none" xmlns="http://www.w3.org/2000/svg">
<path d="M0.0390625 3.15479C0.0585938 3.37451 0.153809 3.54785 0.324707 3.6748L4.11865 6.14307C4.24561 6.22119 4.375 6.2627 4.50684 6.26758C4.61914 6.26758 4.72412 6.23828 4.82178 6.17969C5.02686 6.0625 5.12939 5.88916 5.12939 5.65967C5.12451 5.41064 5.01709 5.22754 4.80713 5.11035L1.79688 3.15479L4.71924 1.27246C4.729 1.26758 4.74121 1.26025 4.75586 1.25049C5.00488 1.11377 5.12939 0.925781 5.12939 0.686523C5.12939 0.574219 5.1001 0.466797 5.0415 0.364258C4.91943 0.164062 4.74121 0.0639648 4.50684 0.0639648C4.43359 0.0639648 4.32617 0.0932617 4.18457 0.151855L0.324707 2.62012C0.310059 2.62988 0.292969 2.64209 0.273438 2.65674C0.117188 2.78857 0.0390625 2.95459 0.0390625 3.15479Z" fill="white"/>
</svg>
