<svg width="146" height="146" viewBox="0 0 146 146" fill="none" xmlns="http://www.w3.org/2000/svg">
<circle cx="73" cy="73" r="54" stroke="#E4D0D0" stroke-width="38"/>
<path d="M73 15C105.033 15 131 40.9675 131 73C131 105.033 105.033 131 73 131C40.9675 131 15 105.033 15 73C15 40.9675 40.9675 15 73 15ZM98.0383 54.4867C96.717 53.1655 94.6295 53.0774 93.2061 54.2225L92.9117 54.4867L63.575 83.8235L53.0883 73.3367C51.6726 71.9211 49.3774 71.9211 47.9617 73.3367C46.6405 74.658 46.5524 76.7455 47.6975 78.1689L47.9617 78.4633L61.0117 91.5133C62.333 92.8345 64.4205 92.9226 65.8439 91.7775L66.1383 91.5133L98.0383 59.6133C99.4539 58.1976 99.4539 55.9024 98.0383 54.4867Z" fill="#D5B4B4"/>
</svg>
