<svg width="391" height="91" viewBox="0 0 391 91" fill="none" xmlns="http://www.w3.org/2000/svg">
<path d="M11.024 91H0.4V1.39999H11.024V42.616H52.624V1.39999H63.248V91H52.624V43.896H11.024V91ZM78.585 2.67999V1.39999H101.369V2.67999H95.097V89.72H101.369V91H78.585V89.72H84.473V2.67999H78.585ZM119.335 2.424C129.234 1.74133 137.98 1.39999 145.575 1.39999C166.652 1.39999 177.191 8.43999 177.191 22.52C177.191 28.4933 175.74 33.8267 172.839 38.52C169.938 43.2133 164.946 46.328 157.863 47.864L183.463 91H171.559L146.471 48.632H129.959V91H119.335V2.424ZM145.575 2.67999C140.626 2.67999 135.42 2.97866 129.959 3.576V47.352H148.903C160.935 46.84 166.951 38.648 166.951 22.776C166.951 16.2907 165.159 11.3413 161.575 7.92799C157.991 4.42933 152.658 2.67999 145.575 2.67999ZM192.626 91H191.09L229.362 1.39999L230.77 0.759995L263.026 91H252.146L242.162 62.84H204.786L192.626 91ZM225.394 15.224L205.298 61.56H241.778L225.394 15.224ZM319.827 1.39999C321.448 3.02133 322.259 5.11199 322.259 7.672C322.259 9.80533 321.79 11.9813 320.851 14.2L297.939 60.664V91H287.315V63.48L261.715 1.39999H272.595L297.043 59.128L319.315 14.2C320.254 12.0667 320.723 9.848 320.723 7.544C320.723 5.24 320.083 3.448 318.803 2.168L319.827 1.39999ZM320.001 91H318.465L356.737 1.39999L358.145 0.759995L390.401 91H379.521L369.537 62.84H332.161L320.001 91ZM352.769 15.224L332.673 61.56H369.153L352.769 15.224Z" fill="black"/>
</svg>
