<svg width="72" height="96" viewBox="0 0 72 96" fill="none" xmlns="http://www.w3.org/2000/svg">
<path d="M63.7466 54.7883C64.6726 57.9849 64.7154 61.2374 63.8748 64.546C63.0778 67.7753 61.3482 70.775 58.6859 73.5452C56.0672 76.2361 52.6509 78.3585 48.4369 79.9125L50.6005 87.3814L44.6992 89.091L42.5088 81.5298C36.2013 82.7574 30.7185 82.3468 26.0604 80.298C21.3846 78.1877 18.2016 74.4456 16.5116 69.0716L30.3429 65.0648C31.9939 69.384 35.043 71.3991 39.4903 71.1102L34.3883 53.4984C29.6417 53.674 25.7557 53.6004 22.7304 53.2775C19.7051 52.9545 16.8527 51.8485 14.1732 49.9595C11.4938 48.0704 9.53969 45.0051 8.31093 40.7635C6.76162 35.4154 7.40289 30.4988 10.2347 26.0137C13.1281 21.5108 17.5464 18.132 23.4897 15.8772L21.326 8.40828L27.2274 6.69869L29.3911 14.1676C35.4349 12.9498 40.654 13.3702 45.0483 15.4287C49.5041 17.4695 52.7307 21.1323 54.7282 26.4173L40.8046 30.4508C40.1038 28.7215 39.0131 27.3717 37.5326 26.4013C36.0958 25.3517 34.4059 24.8084 32.463 24.7716L37.5116 42.1991C42.4604 42.0314 46.4167 42.118 49.3805 42.4588C52.3881 42.7202 55.2316 43.7955 57.911 45.6845C60.5726 47.5121 62.5178 50.5467 63.7466 54.7883ZM21.5864 36.2181C22.1741 38.2467 23.2696 39.7283 24.8731 40.6631C26.4587 41.5364 28.5352 42.0343 31.1027 42.1567L26.4815 26.2046C24.3575 27.153 22.8459 28.4904 21.9468 30.2168C21.0476 31.9432 20.9275 33.9436 21.5864 36.2181ZM45.4451 69.5851C47.6564 68.4781 49.1938 66.9999 50.0573 65.1506C50.9823 63.2835 51.1421 61.3049 50.5366 59.2148C49.9489 57.1862 48.8316 55.7442 47.1845 54.8887C45.5374 54.0332 43.3994 53.5532 40.7705 53.4485L45.4451 69.5851Z" fill="white"/>
</svg>
