<svg width="94" height="94" viewBox="0 0 94 94" fill="none" xmlns="http://www.w3.org/2000/svg">
<path d="M46.6663 14.7864C49.1043 14.4164 51.5417 15.226 53.3056 16.935L56.0447 19.6864C56.908 20.5033 58.0869 20.9002 59.267 20.7339L67.3182 19.5994C76.9954 18.2357 82.4421 22.7508 83.905 33.378L85.7 46.1841C87.1227 56.3343 81.7581 63.4723 71.6089 64.9025L51.9136 67.678C41.8168 69.1008 34.6717 63.7256 33.2453 53.5491L30.4773 33.8009C28.9514 22.9144 33.0028 16.7118 42.5227 15.3703L46.6663 14.7864ZM70.8907 42.9884L46.606 46.4106C45.5045 46.5658 44.7607 47.5555 44.9155 48.6599C45.0666 49.7381 46.0574 50.5102 47.1588 50.3549L71.4436 46.9328C72.5188 46.7812 73.2589 45.7652 73.1078 44.6871C72.953 43.5827 71.966 42.8369 70.8907 42.9884Z" fill="url(#paint0_linear_37_986)"/>
<g filter="url(#filter0_bdi_37_986)">
<path d="M33.4047 18.2691C36.3634 18.2378 39.1251 19.608 40.9366 21.9341L43.7332 25.6624C44.623 26.7776 45.9578 27.4468 47.3879 27.4468H57.1442C68.871 27.4468 74.5913 33.7242 74.5597 46.5978V62.1161C74.5597 74.4161 66.996 82 54.6972 82H30.8306C18.5954 82 11 74.4161 11 62.0843V38.1535C11 24.9613 16.8475 18.2691 28.3835 18.2691H33.4047ZM57.4938 55.8387H28.0657C26.731 55.8387 25.6823 56.8903 25.6823 58.2286C25.6823 59.5351 26.731 60.6185 28.0657 60.6185H57.4938C58.7968 60.6185 59.8455 59.5351 59.8455 58.2286C59.8455 56.8903 58.7968 55.8387 57.4938 55.8387Z" fill="#DCECFF" fill-opacity="0.0175" shape-rendering="crispEdges"/>
<path d="M33.4047 18.5191L33.4074 18.5191C36.2852 18.4886 38.9731 19.8208 40.7379 22.086C40.7384 22.0866 40.7389 22.0871 40.7393 22.0877L43.5332 25.8124L43.5331 25.8124L43.5378 25.8183C44.4731 26.9906 45.8786 27.6968 47.3879 27.6968H57.1442C62.9645 27.6968 67.2475 29.2537 70.0765 32.363C72.9095 35.4768 74.3254 40.1921 74.3097 46.5972V46.5978V62.1161C74.3097 68.2145 72.4357 73.1167 69.0636 76.4939C65.6915 79.8711 60.7947 81.75 54.6972 81.75H30.8306C24.7652 81.75 19.8763 79.8713 16.5041 76.4901C13.1319 73.1088 11.25 68.1984 11.25 62.0843V38.1535C11.25 31.5891 12.7055 26.6875 15.554 23.4288C18.397 20.1763 22.6644 18.5191 28.3835 18.5191L33.4047 18.5191ZM57.4938 55.5887H28.0657C26.5923 55.5887 25.4323 56.7528 25.4323 58.2286C25.4323 59.6703 26.5901 60.8685 28.0657 60.8685H57.4938C58.9398 60.8685 60.0955 59.6681 60.0955 58.2286C60.0955 56.755 58.9377 55.5887 57.4938 55.5887Z" stroke="white" stroke-opacity="0.35" stroke-width="0.5" shape-rendering="crispEdges"/>
</g>
<defs>
<filter id="filter0_bdi_37_986" x="-1" y="0.268555" width="94.5598" height="93.7314" filterUnits="userSpaceOnUse" color-interpolation-filters="sRGB">
<feFlood flood-opacity="0" result="BackgroundImageFix"/>
<feGaussianBlur in="BackgroundImageFix" stdDeviation="6"/>
<feComposite in2="SourceAlpha" operator="in" result="effect1_backgroundBlur_37_986"/>
<feColorMatrix in="SourceAlpha" type="matrix" values="0 0 0 0 0 0 0 0 0 0 0 0 0 0 0 0 0 0 127 0" result="hardAlpha"/>
<feOffset dx="4" dy="-3"/>
<feGaussianBlur stdDeviation="7.5"/>
<feComposite in2="hardAlpha" operator="out"/>
<feColorMatrix type="matrix" values="0 0 0 0 1 0 0 0 0 1 0 0 0 0 1 0 0 0 0.25 0"/>
<feBlend mode="normal" in2="effect1_backgroundBlur_37_986" result="effect2_dropShadow_37_986"/>
<feBlend mode="normal" in="SourceGraphic" in2="effect2_dropShadow_37_986" result="shape"/>
<feColorMatrix in="SourceAlpha" type="matrix" values="0 0 0 0 0 0 0 0 0 0 0 0 0 0 0 0 0 0 127 0" result="hardAlpha"/>
<feOffset dy="-4.58"/>
<feGaussianBlur stdDeviation="2.29"/>
<feComposite in2="hardAlpha" operator="arithmetic" k2="-1" k3="1"/>
<feColorMatrix type="matrix" values="0 0 0 0 0.862745 0 0 0 0 0.92549 0 0 0 0 1 0 0 0 0.3026 0"/>
<feBlend mode="normal" in2="shape" result="effect3_innerShadow_37_986"/>
</filter>
<linearGradient id="paint0_linear_37_986" x1="50.7248" y1="2.33589" x2="76.1281" y2="58.8036" gradientUnits="userSpaceOnUse">
<stop offset="0.0745377"/>
<stop offset="0.314491" stop-color="#282828"/>
<stop offset="1" stop-color="#999999"/>
</linearGradient>
</defs>
</svg>
