<svg width="165" height="22" viewBox="0 0 165 22" fill="none" xmlns="http://www.w3.org/2000/svg">
<path d="M154.337 6.82425C154.337 6.91404 154.337 7.00384 154.247 7.09364C153.529 10.6856 151.194 11.8529 148.141 11.8529H146.614C146.255 11.8529 145.896 12.1223 145.896 12.4815L145.087 17.5102L144.908 18.947C144.908 19.2164 145.087 19.396 145.267 19.396H148.051C148.41 19.396 148.679 19.1266 148.679 18.8572V18.6776L149.218 15.4449V15.2653C149.308 14.9061 149.577 14.7265 149.847 14.7265H150.296C152.99 14.7265 155.055 13.6489 155.594 10.506C155.863 9.159 155.684 8.08142 155.055 7.36304C154.876 7.18344 154.606 7.00384 154.337 6.82425Z" fill="#2199D6"/>
<path d="M153.618 6.55489C153.529 6.55489 153.439 6.46509 153.259 6.46509C153.169 6.46509 152.99 6.37529 152.9 6.37529C152.451 6.28549 152.002 6.2855 151.553 6.2855H147.422C147.332 6.2855 147.243 6.28549 147.153 6.37529C146.973 6.46509 146.794 6.64469 146.794 6.82428L145.896 12.3918V12.5714C145.985 12.2122 146.255 11.9428 146.614 11.9428H148.141C151.194 11.9428 153.529 10.6856 154.247 7.18348C154.247 7.09368 154.247 7.00388 154.337 6.91408C154.157 6.82429 153.977 6.73449 153.798 6.64469C153.708 6.55489 153.618 6.55489 153.618 6.55489Z" fill="#252C5E"/>
<path d="M146.794 6.82428C146.794 6.64469 146.973 6.46509 147.153 6.37529C147.243 6.37529 147.332 6.2855 147.422 6.2855H151.553C152.002 6.2855 152.541 6.28549 152.9 6.37529C152.99 6.37529 153.169 6.37529 153.259 6.46509C153.349 6.46509 153.439 6.55489 153.618 6.55489C153.708 6.55489 153.708 6.55489 153.798 6.64469C153.977 6.73449 154.157 6.82429 154.337 6.91408C154.516 5.56711 154.337 4.66912 153.618 3.86093C152.81 2.96295 151.373 2.60376 149.577 2.60376H144.279C143.92 2.60376 143.561 2.87315 143.561 3.23234L141.406 17.0613C141.406 17.3307 141.585 17.6001 141.855 17.6001H145.087L145.896 12.3918L146.794 6.82428Z" fill="#263577"/>
<path d="M62.723 4.37214L55.496 4.39699L55.7149 17.6278L62.9419 17.6029L62.723 4.37214Z" fill="#FF5F00"/>
<path d="M55.9717 11.0392C55.9269 8.34812 57.1324 5.95703 59.0206 4.40605C57.5954 3.28765 55.8086 2.61512 53.8717 2.62176C49.283 2.63747 45.6332 6.41764 45.7106 11.0743C45.788 15.731 49.563 19.4857 54.1517 19.47C56.0886 19.4634 57.8528 18.7787 59.2407 17.6506C57.3016 16.1362 56.0164 13.7302 55.9717 11.0392Z" fill="#EB001B"/>
<path d="M72.7273 10.9257C72.8047 15.5824 69.1549 19.3625 64.5663 19.3782C62.6293 19.3849 60.8426 18.7123 59.4173 17.594C61.3286 16.0429 62.511 13.6519 62.4663 10.9608C62.4216 8.2698 61.1368 5.88723 59.1972 4.34937C60.5851 3.22133 62.3494 2.53664 64.2863 2.53001C68.8749 2.51429 72.6503 6.29243 72.7273 10.9257Z" fill="#F79E1B"/>
<path d="M106.272 17.6022H98.9257V4.40033H106.272V17.6022Z" fill="#6C6BBD"/>
<path d="M99.3962 11.0001C99.3962 8.32207 100.65 5.93651 102.603 4.39917C101.175 3.27499 99.3727 2.604 97.4142 2.604C92.7776 2.604 89.0192 6.36302 89.0192 11.0001C89.0192 15.6373 92.7776 19.3963 97.4142 19.3963C99.3727 19.3963 101.175 18.7253 102.603 17.6011C100.65 16.0638 99.3962 13.6782 99.3962 11.0001Z" fill="#EB001B"/>
<path d="M116.179 11.0001C116.179 15.6373 112.42 19.3963 107.784 19.3963C105.825 19.3963 104.023 18.7253 102.595 17.6011C104.548 16.0638 105.802 13.6782 105.802 11.0001C105.802 8.32207 104.548 5.93651 102.595 4.39917C104.023 3.27499 105.825 2.604 107.784 2.604C112.42 2.604 116.179 6.36302 116.179 11.0001Z" fill="#0099DF"/>
<path d="M26.5703 6.82625H24.8108C24.2789 6.82625 23.8698 6.98992 23.6243 7.52184L20.2691 15.1733H22.6423C22.6423 15.1733 23.0514 14.1504 23.1333 13.9049C23.3788 13.9049 25.711 13.9049 26.0383 13.9049C26.1202 14.1913 26.3248 15.1324 26.3248 15.1324H28.4524L26.5703 6.82625ZM23.7879 12.1864C23.9925 11.6954 24.6881 9.8541 24.6881 9.8541C24.6881 9.89502 24.8927 9.3631 24.9745 9.07668L25.1382 9.81318C25.1382 9.81318 25.5883 11.8181 25.6701 12.2273H23.7879V12.1864Z" fill="#3362AB"/>
<path d="M20.4327 12.432C20.4327 14.1505 18.8779 15.2961 16.4638 15.2961C15.4409 15.2961 14.4589 15.0916 13.927 14.8461L14.2543 12.9639L14.5407 13.0866C15.2772 13.414 15.7682 13.5367 16.6684 13.5367C17.323 13.5367 18.0186 13.2912 18.0186 12.7184C18.0186 12.3501 17.7322 12.1046 16.832 11.6955C15.9728 11.2863 14.8271 10.6316 14.8271 9.44504C14.8271 7.80837 16.4229 6.70361 18.6733 6.70361C19.5326 6.70361 20.2691 6.86728 20.7191 7.07186L20.3918 8.87221L20.2281 8.70854C19.819 8.54487 19.2871 8.3812 18.5096 8.3812C17.6504 8.42212 17.2412 8.79037 17.2412 9.11771C17.2412 9.48596 17.7322 9.77238 18.5096 10.1406C19.819 10.7544 20.4327 11.45 20.4327 12.432Z" fill="#3362AB"/>
<path d="M0.465332 6.90831L0.506249 6.74464H4.0251C4.5161 6.74464 4.88435 6.90831 5.0071 7.44023L5.78452 11.1227C5.0071 9.15874 3.20676 7.56298 0.465332 6.90831Z" fill="#F9B50B"/>
<path d="M10.7354 6.82629L7.17568 15.1324H4.76159L2.71575 8.17655C4.18875 9.11763 5.41626 10.5906 5.86634 11.6136L6.11184 12.4728L8.32135 6.78537H10.7354V6.82629Z" fill="#3362AB"/>
<path d="M11.6766 6.78537H13.927L12.4949 15.1324H10.2445L11.6766 6.78537Z" fill="#3362AB"/>
</svg>
