<svg width="67" height="11" viewBox="0 0 67 11" fill="none" xmlns="http://www.w3.org/2000/svg">
<path d="M49.8094 10.8777C49.6731 10.8777 49.5375 10.8362 49.4208 10.7536L46.6765 8.80262L43.9322 10.7536C43.8185 10.8347 43.6818 10.8781 43.5418 10.8777C43.4017 10.8772 43.2654 10.8328 43.1522 10.751C43.039 10.6696 42.9545 10.5549 42.9108 10.4231C42.8672 10.2914 42.8665 10.1494 42.909 10.0172L43.9325 6.74258L41.2128 4.84272C41.1001 4.76026 41.0164 4.64475 40.9735 4.51254C40.9307 4.38033 40.9308 4.23811 40.974 4.10599C41.0175 3.97419 41.1016 3.85927 41.2146 3.77748C41.3275 3.69569 41.4636 3.65115 41.6035 3.65017L44.9719 3.64516L46.0443 0.451752C46.0885 0.320198 46.1734 0.205781 46.2869 0.124705C46.4004 0.0436277 46.5368 0 46.6766 0C46.8165 0 46.9529 0.0436277 47.0664 0.124705C47.1799 0.205781 47.2647 0.320198 47.309 0.451752L48.3632 3.64516L51.7488 3.65017C51.8889 3.65096 52.0251 3.69547 52.1382 3.77738C52.2512 3.8593 52.3354 3.97446 52.3787 4.10649C52.422 4.23853 52.4222 4.38073 52.3793 4.51289C52.3364 4.64506 52.2526 4.76047 52.1398 4.84272L49.4201 6.74258L50.4436 10.0172C50.4862 10.1493 50.4856 10.2913 50.442 10.4231C50.3984 10.5548 50.3139 10.6696 50.2007 10.751C50.0873 10.8335 49.9501 10.8779 49.8094 10.8777Z" fill="#FFAC33"/>
<path d="M63.8679 10.8777C63.7316 10.8777 63.596 10.8362 63.4793 10.7536L60.735 8.80262L57.9907 10.7536C57.877 10.8347 57.7403 10.8781 57.6003 10.8777C57.4602 10.8772 57.3239 10.8328 57.2107 10.751C57.0975 10.6696 57.013 10.5549 56.9694 10.4231C56.9257 10.2914 56.925 10.1494 56.9675 10.0172L57.991 6.74258L55.2713 4.84272C55.1586 4.76026 55.0749 4.64475 55.032 4.51254C54.9892 4.38033 54.9893 4.23811 55.0325 4.10599C55.076 3.97419 55.1601 3.85927 55.2731 3.77748C55.3861 3.69569 55.5221 3.65115 55.662 3.65017L59.0304 3.64516L60.1028 0.451752C60.147 0.320198 60.2319 0.205781 60.3454 0.124705C60.4589 0.0436277 60.5953 0 60.7351 0C60.875 0 61.0114 0.0436277 61.1249 0.124705C61.2384 0.205781 61.3232 0.320198 61.3675 0.451752L62.4217 3.64516L65.8073 3.65017C65.9474 3.65096 66.0836 3.69547 66.1967 3.77738C66.3097 3.8593 66.3939 3.97446 66.4372 4.10649C66.4805 4.23853 66.4807 4.38073 66.4378 4.51289C66.3949 4.64506 66.3111 4.76047 66.1983 4.84272L63.4786 6.74258L64.5021 10.0172C64.5447 10.1493 64.5441 10.2913 64.5005 10.4231C64.4569 10.5548 64.3725 10.6696 64.2592 10.751C64.1458 10.8335 64.0086 10.8779 63.8679 10.8777Z" fill="#FFAC33"/>
<path d="M36.145 10.8777C36.0088 10.8777 35.8731 10.8362 35.7564 10.7536L33.0121 8.80262L30.2678 10.7536C30.1541 10.8347 30.0175 10.8781 29.8774 10.8777C29.7373 10.8772 29.601 10.8328 29.4878 10.751C29.3746 10.6696 29.2901 10.5549 29.2465 10.4231C29.2028 10.2914 29.2022 10.1494 29.2446 10.0172L30.2681 6.74258L27.5484 4.84272C27.4357 4.76026 27.352 4.64475 27.3092 4.51254C27.2663 4.38033 27.2665 4.23811 27.3096 4.10599C27.3531 3.97419 27.4373 3.85927 27.5502 3.77748C27.6632 3.69569 27.7992 3.65115 27.9391 3.65017L31.3075 3.64516L32.3799 0.451752C32.4242 0.320198 32.5091 0.205781 32.6226 0.124705C32.736 0.0436277 32.8724 0 33.0123 0C33.1522 0 33.2885 0.0436277 33.402 0.124705C33.5155 0.205781 33.6004 0.320198 33.6446 0.451752L34.6988 3.64516L38.0844 3.65017C38.2245 3.65096 38.3607 3.69547 38.4738 3.77738C38.5869 3.8593 38.671 3.97446 38.7143 4.10649C38.7576 4.23853 38.7578 4.38073 38.7149 4.51289C38.6721 4.64506 38.5882 4.76047 38.4754 4.84272L35.7557 6.74258L36.7793 10.0172C36.8218 10.1493 36.8212 10.2913 36.7776 10.4231C36.734 10.5548 36.6496 10.6696 36.5364 10.751C36.4229 10.8335 36.2858 10.8779 36.145 10.8777Z" fill="#FFAC33"/>
<path d="M22.4806 10.8777C22.3444 10.8777 22.2087 10.8362 22.092 10.7536L19.3477 8.80262L16.6034 10.7536C16.4897 10.8347 16.3531 10.8781 16.213 10.8777C16.0729 10.8772 15.9366 10.8328 15.8235 10.751C15.7102 10.6696 15.6258 10.5549 15.5821 10.4231C15.5384 10.2914 15.5378 10.1494 15.5802 10.0172L16.6037 6.74258L13.884 4.84272C13.7713 4.76026 13.6876 4.64475 13.6448 4.51254C13.6019 4.38033 13.6021 4.23811 13.6452 4.10599C13.6887 3.97419 13.7729 3.85927 13.8858 3.77748C13.9988 3.69569 14.1348 3.65115 14.2747 3.65017L17.6431 3.64516L18.7155 0.451752C18.7598 0.320198 18.8447 0.205781 18.9582 0.124705C19.0716 0.0436277 19.208 0 19.3479 0C19.4878 0 19.6241 0.0436277 19.7376 0.124705C19.8511 0.205781 19.936 0.320198 19.9802 0.451752L21.0344 3.64516L24.42 3.65017C24.5601 3.65096 24.6963 3.69547 24.8094 3.77738C24.9225 3.8593 25.0066 3.97446 25.0499 4.10649C25.0932 4.23853 25.0934 4.38073 25.0505 4.51289C25.0077 4.64506 24.9239 4.76047 24.811 4.84272L22.0913 6.74258L23.1149 10.0172C23.1574 10.1493 23.1568 10.2913 23.1132 10.4231C23.0696 10.5548 22.9852 10.6696 22.872 10.751C22.7585 10.8335 22.6214 10.8779 22.4806 10.8777Z" fill="#FFAC33"/>
<path d="M8.86791 10.8777C8.73162 10.8777 8.59601 10.8362 8.47929 10.7536L5.73498 8.80262L2.99066 10.7536C2.87696 10.8347 2.74032 10.8781 2.60025 10.8777C2.46019 10.8772 2.32385 10.8328 2.21072 10.751C2.09748 10.6696 2.01302 10.5549 1.96935 10.4231C1.92568 10.2914 1.92503 10.1494 1.96749 10.0172L2.991 6.74258L0.271316 4.84272C0.158602 4.76026 0.0748947 4.64475 0.0320333 4.51254C-0.0108281 4.38033 -0.0106736 4.23811 0.032475 4.10599C0.075964 3.97419 0.160136 3.85927 0.273094 3.77748C0.386052 3.69569 0.522083 3.65115 0.661963 3.65017L4.03037 3.64516L5.10279 0.451752C5.14705 0.320198 5.23193 0.205781 5.34542 0.124705C5.45891 0.0436277 5.59526 0 5.73515 0C5.87503 0 6.01138 0.0436277 6.12487 0.124705C6.23836 0.205781 6.32324 0.320198 6.3675 0.451752L7.42171 3.64516L10.8073 3.65017C10.9474 3.65096 11.0836 3.69547 11.1967 3.77738C11.3097 3.8593 11.3939 3.97446 11.4372 4.10649C11.4805 4.23853 11.4807 4.38073 11.4378 4.51289C11.3949 4.64506 11.3111 4.76047 11.1983 4.84272L8.47861 6.74258L9.50212 10.0172C9.54467 10.1493 9.5441 10.2913 9.50049 10.4231C9.45688 10.5548 9.37245 10.6696 9.25923 10.751C9.14575 10.8335 9.00865 10.8779 8.86791 10.8777Z" fill="#FFAC33"/>
</svg>
