<svg width="94" height="94" viewBox="0 0 94 94" fill="none" xmlns="http://www.w3.org/2000/svg">
<path d="M54.403 13.6957L55.1381 13.6024C69.3304 12.0001 82.3142 22.0267 84.3142 36.2962C86.3451 50.7855 76.251 64.2481 61.7745 66.2882C47.3242 68.3245 33.894 58.1769 31.8632 43.6876C29.8286 29.1721 39.9527 15.732 54.403 13.6957ZM61.8071 28.7417C60.9097 28.0636 59.6771 28.2373 59.0272 29.1334L51.1534 39.548C50.8379 39.9679 50.6981 40.4971 50.7718 41.023C50.8455 41.5489 51.1253 42.019 51.5441 42.3354L61.9758 50.1704C62.3982 50.5131 62.9223 50.627 63.4206 50.5568C63.9451 50.4828 64.4176 50.2285 64.7557 49.7787C65.4056 48.8826 65.2324 47.6467 64.3388 46.995L55.5186 40.3541L62.1715 31.5328C62.8514 30.6593 62.6745 29.3971 61.8071 28.7417Z" fill="url(#paint0_linear_37_985)"/>
<g filter="url(#filter0_bdi_37_985)">
<path d="M42.7799 18.2688L43.669 18.281C60.801 18.7537 74.5598 32.8427 74.5598 50.1344C74.5598 67.6924 60.3224 82 42.7799 82C25.2692 82 11 67.6924 11 50.1344C11 32.5446 25.2692 18.2688 42.7799 18.2688ZM49.0723 37.3882C48.1189 36.4322 46.6253 36.4322 45.7037 37.3882L34.6125 48.4455C34.1676 48.8917 33.9133 49.4971 33.9133 50.1344C33.9133 50.7717 34.1676 51.3772 34.6125 51.8233L45.7037 62.8807C46.1486 63.3587 46.7524 63.5817 47.3562 63.5817C47.9918 63.5817 48.5956 63.3587 49.0723 62.8807C49.994 61.9247 49.994 60.427 49.0406 59.5029L39.6655 50.1344L49.0406 40.7659C49.994 39.8418 49.994 38.3123 49.0723 37.3882Z" fill="#DCECFF" fill-opacity="0.0175" shape-rendering="crispEdges"/>
<path d="M34.436 48.2685L34.4355 48.269C33.9443 48.7615 33.6633 49.4303 33.6633 50.1344C33.6633 50.8386 33.9443 51.5073 34.4355 51.9998L34.436 52.0003L45.524 63.0546C46.0211 63.5866 46.6926 63.8317 47.3562 63.8317C48.053 63.8317 48.7222 63.5858 49.2493 63.0572L49.2494 63.0572L49.2523 63.0542C50.2657 62.0031 50.2704 60.3484 49.2161 59.3249C49.2156 59.3244 49.2151 59.3239 49.2146 59.3234L40.0192 50.1344L49.2146 40.9454C49.2151 40.945 49.2156 40.9445 49.2161 40.944C50.2688 39.922 50.2683 38.2333 49.2493 37.2116C48.2006 36.16 46.5471 36.155 45.5254 37.2129C45.5248 37.2135 45.5243 37.2141 45.5237 37.2147L34.436 48.2685ZM42.7782 18.5188C42.7788 18.5188 42.7793 18.5188 42.7799 18.5188L43.6621 18.531C43.6627 18.531 43.6633 18.531 43.6638 18.531C60.6594 19.0008 74.3098 32.9785 74.3098 50.1344C74.3098 67.5551 60.1836 81.75 42.7799 81.75C25.4079 81.75 11.25 67.5549 11.25 50.1344C11.25 32.6828 25.4068 18.5197 42.7782 18.5188Z" stroke="white" stroke-opacity="0.35" stroke-width="0.5" shape-rendering="crispEdges"/>
</g>
<defs>
<filter id="filter0_bdi_37_985" x="-1" y="0.268799" width="94.5598" height="93.7312" filterUnits="userSpaceOnUse" color-interpolation-filters="sRGB">
<feFlood flood-opacity="0" result="BackgroundImageFix"/>
<feGaussianBlur in="BackgroundImageFix" stdDeviation="6"/>
<feComposite in2="SourceAlpha" operator="in" result="effect1_backgroundBlur_37_985"/>
<feColorMatrix in="SourceAlpha" type="matrix" values="0 0 0 0 0 0 0 0 0 0 0 0 0 0 0 0 0 0 127 0" result="hardAlpha"/>
<feOffset dx="4" dy="-3"/>
<feGaussianBlur stdDeviation="7.5"/>
<feComposite in2="hardAlpha" operator="out"/>
<feColorMatrix type="matrix" values="0 0 0 0 1 0 0 0 0 1 0 0 0 0 1 0 0 0 0.25 0"/>
<feBlend mode="normal" in2="effect1_backgroundBlur_37_985" result="effect2_dropShadow_37_985"/>
<feBlend mode="normal" in="SourceGraphic" in2="effect2_dropShadow_37_985" result="shape"/>
<feColorMatrix in="SourceAlpha" type="matrix" values="0 0 0 0 0 0 0 0 0 0 0 0 0 0 0 0 0 0 127 0" result="hardAlpha"/>
<feOffset dy="-4.58"/>
<feGaussianBlur stdDeviation="2.29"/>
<feComposite in2="hardAlpha" operator="arithmetic" k2="-1" k3="1"/>
<feColorMatrix type="matrix" values="0 0 0 0 0.862745 0 0 0 0 0.92549 0 0 0 0 1 0 0 0 0.3026 0"/>
<feBlend mode="normal" in2="shape" result="effect3_innerShadow_37_985"/>
</filter>
<linearGradient id="paint0_linear_37_985" x1="50.7249" y1="2.3359" x2="76.1282" y2="58.8034" gradientUnits="userSpaceOnUse">
<stop offset="0.0745377"/>
<stop offset="0.314491" stop-color="#282828"/>
<stop offset="1" stop-color="#999999"/>
</linearGradient>
</defs>
</svg>
