<svg width="97" height="73" viewBox="0 0 97 73" fill="none" xmlns="http://www.w3.org/2000/svg">
<path d="M73.4498 10.5864L64.0197 13.4652L61.6863 5.82181C60.403 1.61795 55.9581 -0.785207 51.8088 0.481467L6.54412 14.2997C2.39485 15.5664 0.0500067 20.0423 1.33335 24.2462L11.8334 58.6414C13.1168 62.8453 17.5616 65.2484 21.7109 63.9817C23.6476 70.3257 30.2655 73.9038 36.5271 71.9922C42.7887 70.0807 46.2799 63.4166 44.3432 57.0726L66.9756 50.1635C68.9123 56.5075 75.5302 60.0855 81.7918 58.174C88.0534 56.2624 91.5446 49.5983 89.608 43.2543L93.38 42.1028C95.4547 41.4695 96.6271 39.2315 95.9854 37.1296L92.1004 24.4034C91.5987 22.76 90.5806 21.3161 89.1916 20.2779L76.9341 11.1938C75.9258 10.4572 74.6191 10.2294 73.4498 10.5864ZM34.1937 64.3489C32.1191 64.9822 29.8967 63.7806 29.255 61.6787C28.6133 59.5768 29.7858 57.3388 31.8604 56.7055C33.935 56.0721 36.1575 57.2737 36.7991 59.3756C37.4408 61.4776 36.2684 63.7155 34.1937 64.3489ZM75.1998 16.3189L85.5097 23.6162L68.6864 28.752L65.7697 19.1977L75.1998 16.3189ZM79.4585 50.5306C77.3838 51.1639 75.1614 49.9624 74.5197 47.8604C73.8781 45.7585 75.0505 43.5205 77.1251 42.8872C79.1997 42.2539 81.4222 43.4554 82.0638 45.5574C82.7055 47.6593 81.5331 49.8973 79.4585 50.5306Z" fill="white"/>
</svg>
