<svg width="20" height="18" viewBox="0 0 20 18" fill="none" xmlns="http://www.w3.org/2000/svg">
<path d="M8.44097 0.755793C8.85069 0.955832 9.00694 1.43133 8.79514 1.81829L5.96181 6.96355H14.0382L11.2049 1.81829C10.9931 1.43133 11.1528 0.955832 11.559 0.755793C11.9653 0.555754 12.4688 0.706603 12.684 1.09028L15.9167 6.96355H18.8889C19.5035 6.96355 20 7.43249 20 8.01293C20 8.59337 19.5035 9.06231 18.8889 9.06231L17.0868 15.8669C16.8403 16.8015 15.9514 17.4574 14.9306 17.4574H5.06944C4.04861 17.4574 3.15972 16.8015 2.91319 15.8669L1.11111 9.06231C0.496528 9.06231 0 8.59337 0 8.01293C0 7.43249 0.496528 6.96355 1.11111 6.96355H4.08333L7.31597 1.09028C7.52778 0.703324 8.03125 0.555754 8.44097 0.755793ZM5 10.374C5.46181 10.374 5.83333 10.0232 5.83333 9.58701C5.83333 9.15086 5.46181 8.79997 5 8.79997C4.53819 8.79997 4.16667 9.15086 4.16667 9.58701C4.16667 10.0232 4.53819 10.374 5 10.374ZM15.8333 9.58701C15.8333 9.15086 15.4618 8.79997 15 8.79997C14.5382 8.79997 14.1667 9.15086 14.1667 9.58701C14.1667 10.0232 14.5382 10.374 15 10.374C15.4618 10.374 15.8333 10.0232 15.8333 9.58701Z" fill="black"/>
</svg>
